<svg xmlns="http://www.w3.org/2000/svg" shape-rendering="geometricPrecision" text-rendering="geometricPrecision" image-rendering="optimizeQuality" fill-rule="evenodd" clip-rule="evenodd" viewBox="0 0 506 511.682"><path fill-rule="nonzero" d="M76.022 432.762c-14.224-17.624-28.477-36.009-40.468-55.504-13.738-22.329-24.838-46.442-30.326-73.172-14.057-68.387.935-136.064 36.561-190.148C77.414 59.833 133.687 19.322 202.118 5.235c68.394-14.071 136.056.928 190.14 36.547 54.105 35.632 94.638 91.912 108.71 160.35 7.003 34.067 6.445 67.452-.116 99.01-7.018 33.734-20.937 65.408-39.78 93.639-25.671 38.445-58.723 65.581-98.51 82.009-39.837 16.45-86.054 21.88-138.014 16.979l-9.714-.928c-19.966-1.928-27.528-2.653-33.487-1.094-4.343 1.181-9.932 3.69-18.842 7.677l-8.381 3.734c-20.756 9.229-36.009 10.44-47.878 6.14-15.499-5.618-22.503-17.566-25.765-33.023-1.624-7.706-2.139-15.739-2.675-24.221-.399-6.445-.841-13.231-1.784-19.292zm47.972-127.857l61.768-98.785c10.976-16.573 33.719-20.177 49.357-7.924l52.024 40.917c4.785 3.734 11.469 3.886 16.363.319l66.038-46.413c9.678-7.032 21.873 4.698 15.297 14.681l-62.355 97.785c-10.977 16.566-33.719 20.176-49.357 7.917l-52.024-40.918c-4.785-3.734-11.462-3.893-16.363-.319l-65.509 47.37c-9.671 7.032-21.872-4.64-15.239-14.63zM74.761 353.16c11.976 19.473 26.273 37.597 40.323 54.902a22.782 22.782 0 014.785 9.693c2.501 10.962 3.175 21.532 3.799 31.428.384 6.104.754 11.919 1.493 16.232 2.226-.775 5.633-2.16 10.462-4.299l8.177-3.596c11.23-5.031 18.284-8.192 25.679-10.164h.094c13.688-3.646 23.49-2.711 49.581-.188l9.716.928c44.484 4.197 83.43-.196 116.25-13.746 31.246-12.905 57.36-34.444 77.833-65.103 15.616-23.395 27.144-49.596 32.936-77.457 5.336-25.686 5.8-52.822.116-80.48-11.52-56.026-44.673-102.084-88.919-131.221-44.274-29.158-99.72-41.432-155.79-29.891-56.012 11.528-102.07 44.674-131.199 88.912-29.166 44.282-41.433 99.728-29.906 155.798 4.205 20.495 13.246 39.852 24.57 58.252z"/></svg>