<svg xmlns="http://www.w3.org/2000/svg" xml:space="preserve" version="1.1" shape-rendering="geometricPrecision" text-rendering="geometricPrecision" image-rendering="optimizeQuality" fill-rule="evenodd" clip-rule="evenodd"
viewBox="0 0 512 512"
 xmlns:xlink="http://www.w3.org/1999/xlink">
 <g id="Layer_x0020_1">
  <path fill="black" fill-rule="nonzero" d="M154.914 0l202.172 0c42.619,0 81.357,17.421 109.425,45.489l1.202 1.306c27.36,28.002 44.287,66.208 44.287,108.119l0 202.172c0,42.619 -17.421,81.357 -45.489,109.425 -28.068,28.068 -66.806,45.489 -109.425,45.489l-202.172 0c-42.545,0 -81.268,-17.443 -109.381,-45.533 -28.112,-28.024 -45.533,-66.762 -45.533,-109.381l0 -202.172c0,-42.523 17.421,-81.231 45.489,-109.336l0.089 -0.089c28.156,-28.09 66.842,-45.489 109.336,-45.489zm79.607 126.587c0,-11.857 9.621,-21.479 21.479,-21.479 11.858,0 21.479,9.622 21.479,21.479l0 107.934 107.934 0c11.857,0 21.479,9.621 21.479,21.479 0,11.858 -9.622,21.479 -21.479,21.479l-107.934 0 0 107.934c0,11.857 -9.621,21.479 -21.479,21.479 -11.858,0 -21.479,-9.622 -21.479,-21.479l0 -107.934 -107.934 0c-11.857,0 -21.479,-9.621 -21.479,-21.479 0,-11.858 9.622,-21.479 21.479,-21.479l107.934 0 0 -107.934zm122.565 -83.629l-202.172 0c-30.828,0 -58.815,12.573 -79.055,32.813l-0.088 0.088c-20.24,20.24 -32.813,48.227 -32.813,79.055l0 202.172c0,30.762 12.603,58.756 32.901,79.055l0 0.088c20.24,20.24 48.227,32.813 79.055,32.813l202.172 0c30.762,0 58.756,-12.603 79.055,-32.901 20.298,-20.299 32.901,-48.293 32.901,-79.055l0 -202.172c0,-30.312 -12.16,-57.878 -31.802,-78.029l-1.099 -1.026c-20.299,-20.298 -48.293,-32.901 -79.055,-32.901z"/>
 </g>
</svg>
